The-Imaginarium-of-Doctor-Parnassus{DvDRip.H264} PSP

Format                           : MPEG-4
Format profile                   : Base Media / Version 2
Codec ID                         : mp42
File size                        : 390 MiB
Duration                         : 1h 57mn
Overall bit rate                 : 462 Kbps
Encoded date                     : UTC 2010-03-29 00:21:42
Tagged date                      : UTC 2010-03-29 00:22:03
Writing application              : mp4creator 1.6.1d

Video
ID                               : 1
Format                           : AVC
Format/Info                      : Advanced Video Codec
Format profile                   : Baseline@L1.3
Format settings, CABAC           : No
Format settings, ReFrames        : 1 frame
Codec ID                         : avc1
Codec ID/Info                    : Advanced Video Coding
Duration                         : 1h 57mn
Bit rate mode                    : Variable
Bit rate                         : 380 Kbps
Width                            : 480 pixels
Height                           : 272 pixels
Display aspect ratio             : 16:9
Original display aspect ratio    : 1.853
Frame rate mode                  : Constant
Frame rate                       : 24.000 fps
Resolution                       : 24 bits
Colorimetry                      : 4:2:0
Scan type                        : Progressive
Bits/(Pixel*Frame)               : 0.121
Stream size                      : 321 MiB (82%)
Encoded date                     : UTC 2010-03-29 00:21:42
Tagged date                      : UTC 2010-03-29 00:22:01

Audio
ID                               : 2
Format                           : AAC
Format/Info                      : Advanced Audio Codec
Format version                   : Version 4
Format profile                   : LC
Format settings, SBR             : Yes
Format settings, PS              : No
Codec ID                         : 40
Duration                         : 1h 57mn
Bit rate mode                    : Variable
Bit rate                         : 80.2 Kbps
Maximum bit rate                 : 96.9 Kbps
Channel(s)                       : 2 channels
Channel positions                : L R
Sampling rate                    : 48.0 KHz
Resolution                       : 16 bits
Stream size                      : 67.7 MiB (17%)
Encoded date                     : UTC 2010-03-29 00:22:01
Tagged date                      : UTC 2010-03-29 00:22:03

Doctor Parnassus' (Christopher Plummer) theatre troupe, which includes sleight of hand expert Anton (Andrew Garfield), dwarf Percy (Verne Troyer), and Parnassus' daughter Valentina (Lily Cole), performs outside a pub in London. A drunkard barges onstage, crashing through a stage mirror. He is thrown into a journey of the imagination that culminates in his being offered a choice between enlightenment and a pub. After he enters the pub, it explodes. Parnassus says he has lost another one to Mr. Nick (Tom Waits).
 
http://www.imdb.com/title/tt1054606/

PLEASE SEED AND ENJOY THANKS

screen shots
 
http://img177.imageshack.us/img177/2057/imagdrpinah264vicemp4th.jpg